<?xml version="1.0" encoding="UTF-8"?>
<!DOCTYPE svg PUBLIC "-//W3C//DTD SVG 1.1//EN" "http://www.w3.org/Graphics/SVG/1.1/DTD/svg11.dtd">
<svg xmlns="http://www.w3.org/2000/svg" xmlns:xlink="http://www.w3.org/1999/xlink" version="1.1" width="736px" height="422px" viewBox="-0.5 -0.5 736 422"><defs/><g><g data-cell-id="0"><g data-cell-id="1"><g data-cell-id="aws"><g><path d="M 84 0 L 734 0 L 734 420 L 84 420 Z" fill="none" stroke="#232f3e" stroke-miterlimit="10" pointer-events="none"/><path d="M 90.09 7.18 C 90.01 7.18 89.93 7.19 89.85 7.19 C 89.5 7.19 89.15 7.23 88.81 7.32 C 88.53 7.39 88.25 7.49 87.98 7.62 C 87.9 7.65 87.84 7.7 87.79 7.76 C 87.75 7.83 87.74 7.91 87.74 7.99 L 87.74 8.32 C 87.74 8.46 87.78 8.53 87.89 8.53 L 87.99 8.53 L 88.22 8.44 C 88.45 8.35 88.69 8.27 88.94 8.21 C 89.17 8.16 89.41 8.13 89.65 8.13 C 90.04 8.09 90.43 8.2 90.73 8.44 C 90.97 8.74 91.09 9.12 91.05 9.5 L 91.05 9.99 C 90.78 9.93 90.54 9.88 90.29 9.84 C 90.05 9.81 89.81 9.79 89.57 9.79 C 88.98 9.76 88.4 9.94 87.94 10.31 C 87.54 10.65 87.32 11.15 87.34 11.68 C 87.31 12.15 87.49 12.62 87.82 12.96 C 88.18 13.29 88.66 13.46 89.15 13.44 C 89.91 13.45 90.63 13.11 91.11 12.51 C 91.18 12.66 91.24 12.79 91.31 12.91 C 91.38 13.02 91.46 13.12 91.55 13.21 C 91.6 13.27 91.67 13.31 91.75 13.31 C 91.81 13.31 91.87 13.29 91.92 13.25 L 92.34 12.97 C 92.41 12.93 92.46 12.86 92.47 12.77 C 92.47 12.72 92.45 12.67 92.42 12.62 C 92.34 12.47 92.26 12.31 92.21 12.14 C 92.15 11.95 92.12 11.75 92.13 11.55 L 92.14 9.37 C 92.2 8.77 92 8.18 91.59 7.74 C 91.17 7.39 90.64 7.19 90.09 7.18 Z M 103.89 7.19 C 103.78 7.19 103.68 7.19 103.57 7.2 C 103.29 7.2 103 7.24 102.73 7.31 C 102.47 7.38 102.23 7.5 102.02 7.66 C 101.82 7.81 101.66 7.99 101.54 8.21 C 101.42 8.43 101.35 8.67 101.36 8.92 C 101.36 9.27 101.48 9.61 101.69 9.89 C 101.97 10.22 102.34 10.46 102.76 10.56 L 103.72 10.87 C 103.97 10.93 104.2 11.05 104.39 11.22 C 104.51 11.35 104.58 11.51 104.57 11.69 C 104.58 11.94 104.45 12.18 104.23 12.31 C 103.93 12.48 103.6 12.56 103.26 12.54 C 102.99 12.54 102.72 12.51 102.46 12.45 C 102.22 12.4 101.98 12.32 101.75 12.22 L 101.59 12.15 C 101.54 12.14 101.5 12.14 101.46 12.15 C 101.36 12.15 101.31 12.22 101.31 12.36 L 101.31 12.69 C 101.31 12.76 101.32 12.82 101.35 12.89 C 101.4 12.97 101.47 13.03 101.56 13.07 C 101.8 13.19 102.06 13.28 102.32 13.34 C 102.66 13.41 103 13.45 103.35 13.45 L 103.33 13.46 C 103.66 13.45 103.98 13.4 104.29 13.3 C 104.55 13.22 104.8 13.09 105.01 12.92 C 105.21 12.77 105.38 12.57 105.49 12.34 C 105.61 12.1 105.67 11.83 105.66 11.56 C 105.67 11.23 105.56 10.9 105.36 10.63 C 105.09 10.32 104.73 10.09 104.33 9.99 L 103.39 9.69 C 103.13 9.61 102.88 9.49 102.67 9.32 C 102.54 9.2 102.47 9.03 102.47 8.85 C 102.46 8.61 102.58 8.38 102.79 8.25 C 103.06 8.11 103.36 8.05 103.67 8.06 C 104.11 8.06 104.55 8.14 104.96 8.32 C 105.04 8.37 105.12 8.4 105.21 8.41 C 105.31 8.41 105.36 8.34 105.36 8.19 L 105.36 7.88 C 105.37 7.8 105.35 7.72 105.31 7.66 C 105.25 7.59 105.18 7.54 105.11 7.49 L 104.83 7.38 L 104.45 7.27 L 104.01 7.2 C 103.97 7.2 103.93 7.19 103.89 7.19 Z M 100.02 7.36 C 99.94 7.35 99.86 7.38 99.79 7.42 C 99.72 7.5 99.68 7.59 99.66 7.69 L 98.51 12.14 L 97.47 7.71 C 97.45 7.61 97.41 7.52 97.34 7.44 C 97.26 7.39 97.17 7.37 97.07 7.38 L 96.54 7.38 C 96.44 7.37 96.35 7.39 96.27 7.44 C 96.2 7.51 96.15 7.61 96.14 7.71 L 95.09 12.14 L 93.97 7.7 C 93.95 7.6 93.91 7.51 93.84 7.44 C 93.76 7.39 93.67 7.36 93.58 7.37 L 92.92 7.37 C 92.81 7.37 92.76 7.43 92.76 7.54 C 92.77 7.63 92.79 7.72 92.82 7.81 L 94.38 12.95 C 94.4 13.05 94.45 13.14 94.52 13.21 C 94.6 13.26 94.69 13.29 94.78 13.28 L 95.36 13.26 C 95.46 13.27 95.55 13.25 95.63 13.19 C 95.7 13.12 95.74 13.03 95.76 12.93 L 96.79 8.64 L 97.82 12.93 C 97.83 13.03 97.88 13.12 97.95 13.19 C 98.03 13.25 98.12 13.27 98.21 13.26 L 98.78 13.26 C 98.88 13.27 98.97 13.25 99.04 13.2 C 99.11 13.13 99.16 13.03 99.18 12.94 L 100.79 7.79 C 100.84 7.72 100.84 7.63 100.84 7.63 C 100.84 7.59 100.84 7.56 100.84 7.52 C 100.84 7.48 100.82 7.43 100.79 7.4 C 100.76 7.37 100.72 7.35 100.67 7.36 L 100.05 7.36 C 100.04 7.36 100.03 7.36 100.02 7.36 Z M 89.65 10.62 C 89.7 10.62 89.75 10.62 89.8 10.62 L 90.43 10.62 C 90.64 10.64 90.85 10.67 91.06 10.71 L 91.06 11.01 C 91.07 11.21 91.05 11.4 91 11.59 C 90.96 11.75 90.88 11.9 90.77 12.01 C 90.61 12.21 90.39 12.36 90.14 12.44 C 89.91 12.52 89.67 12.56 89.43 12.56 C 89.18 12.6 88.93 12.53 88.73 12.37 C 88.55 12.18 88.46 11.92 88.49 11.66 C 88.47 11.36 88.59 11.08 88.81 10.89 C 89.06 10.72 89.35 10.62 89.65 10.62 Z M 105.04 14.72 C 104.34 14.73 103.51 14.89 102.89 15.33 C 102.69 15.46 102.72 15.63 102.94 15.63 C 103.64 15.54 105.21 15.35 105.5 15.71 C 105.78 16.06 105.19 17.54 104.94 18.21 C 104.86 18.41 105.03 18.49 105.21 18.34 C 106.39 17.36 106.72 15.3 106.46 15 C 106.32 14.85 105.74 14.71 105.04 14.72 Z M 86.65 15.1 C 86.5 15.12 86.42 15.3 86.58 15.44 C 89.29 17.89 92.82 19.23 96.48 19.21 C 99.37 19.22 102.2 18.36 104.59 16.74 C 104.95 16.47 104.64 16.07 104.26 16.23 C 101.87 17.24 99.3 17.76 96.71 17.77 C 93.23 17.78 89.82 16.87 86.81 15.14 C 86.75 15.11 86.69 15.1 86.65 15.1 Z M 84 0 L 109 0 L 109 25 L 84 25 Z" fill="#232f3e" stroke="none" pointer-events="all"/></g><g><g transform="translate(-0.5 -0.5)"><switch><foreignObject pointer-events="none" width="100%" height="100%" requiredFeatures="http://www.w3.org/TR/SVG11/feature#Extensibility" style="overflow: visible; text-align: left;"><div xmlns="http://www.w3.org/1999/xhtml" style="display: flex; align-items: unsafe flex-start; justify-content: unsafe flex-start; width: 618px; height: 1px; padding-top: 7px; margin-left: 116px;"><div data-drawio-colors="color: #232F3E; " style="box-sizing: border-box; font-size: 0px; text-align: left;"><div style="display: inline-block; font-size: 12px; font-family: Helvetica; color: rgb(35, 47, 62); line-height: 1.2; pointer-events: all; font-weight: bold; white-space: normal; overflow-wrap: normal;">AWS Cloud (ap-northeast-1)</div></div></div></foreignObject><text x="116" y="19" fill="#232F3E" font-family="&quot;Helvetica&quot;" font-size="12px" font-weight="bold">AWS Cloud (ap-northeast-1)</text></switch></g></g><g data-cell-id="vpc"><g><path d="M 104 40 L 714 40 L 714 400 L 104 400 Z" fill="none" stroke="#bbbbbb" stroke-miterlimit="10" stroke-dasharray="3 3" pointer-events="none"/><path d="M 114.59 46.65 C 114.53 46.65 114.48 46.65 114.42 46.65 L 114.42 46.65 C 113.11 46.68 112.03 47.24 111.14 48.25 C 111.13 48.25 111.13 48.25 111.13 48.25 C 110.2 49.36 109.87 50.52 109.96 51.73 C 108.81 52.06 108.12 52.92 107.76 53.74 C 107.75 53.75 107.75 53.76 107.74 53.78 C 107.33 55.05 107.68 56.36 108.24 57.16 C 108.25 57.17 108.25 57.17 108.26 57.18 C 108.94 58.05 109.97 58.53 111.02 58.53 L 122.17 58.53 C 123.19 58.53 124.07 58.16 124.8 57.37 C 125.25 56.94 125.49 56.29 125.58 55.59 C 125.67 54.9 125.61 54.16 125.32 53.55 C 125.31 53.54 125.31 53.53 125.31 53.52 C 124.8 52.62 123.95 51.81 122.76 51.64 C 122.74 50.79 122.28 49.99 121.68 49.56 C 121.67 49.55 121.66 49.55 121.65 49.54 C 121.01 49.18 120.4 49.14 119.91 49.3 C 119.6 49.4 119.36 49.56 119.14 49.74 C 118.51 48.36 117.43 47.18 115.81 46.79 C 115.81 46.79 115.81 46.79 115.81 46.79 C 115.38 46.7 114.97 46.65 114.59 46.65 Z M 114.43 47.38 C 114.8 47.38 115.2 47.43 115.64 47.53 C 117.16 47.89 118.15 49.07 118.66 50.48 C 118.71 50.6 118.81 50.69 118.94 50.72 C 119.07 50.74 119.2 50.7 119.29 50.61 C 119.54 50.34 119.83 50.11 120.14 50.01 C 120.44 49.91 120.78 49.92 121.26 50.18 C 121.67 50.49 122.11 51.31 122.03 51.9 C 122.01 52.01 122.05 52.12 122.12 52.2 C 122.19 52.28 122.29 52.33 122.39 52.33 C 123.46 52.34 124.16 53.02 124.64 53.88 C 124.85 54.3 124.91 54.92 124.84 55.5 C 124.76 56.07 124.53 56.59 124.28 56.83 C 124.27 56.84 124.27 56.85 124.26 56.85 C 123.65 57.53 123.03 57.78 122.17 57.78 L 111.02 57.78 C 110.2 57.78 109.39 57.41 108.85 56.73 C 108.44 56.13 108.14 55.02 108.46 54.02 C 108.79 53.27 109.36 52.55 110.41 52.36 C 110.6 52.32 110.74 52.14 110.71 51.94 C 110.56 50.79 110.8 49.81 111.7 48.74 C 112.49 47.85 113.33 47.39 114.43 47.38 Z M 116.2 50.7 C 115.77 50.7 115.4 50.93 115.13 51.21 C 114.85 51.5 114.64 51.85 114.64 52.25 L 114.64 52.71 L 114.14 52.71 C 114.04 52.71 113.94 52.75 113.87 52.82 C 113.8 52.89 113.76 52.98 113.76 53.08 L 113.76 55.7 C 113.76 55.8 113.8 55.89 113.87 55.96 C 113.94 56.03 114.04 56.07 114.14 56.07 L 118.16 56.07 C 118.26 56.07 118.35 56.03 118.42 55.96 C 118.49 55.89 118.53 55.8 118.53 55.7 L 118.53 53.08 C 118.53 52.98 118.49 52.89 118.42 52.82 C 118.35 52.75 118.26 52.71 118.16 52.71 L 117.68 52.71 L 117.68 52.25 C 117.68 51.84 117.47 51.47 117.21 51.2 C 116.94 50.92 116.61 50.7 116.2 50.7 Z M 116.2 51.45 C 116.29 51.45 116.5 51.54 116.67 51.72 C 116.83 51.89 116.93 52.11 116.93 52.25 L 116.93 52.71 L 115.39 52.71 L 115.39 52.25 C 115.39 52.15 115.49 51.91 115.66 51.74 C 115.83 51.56 116.06 51.45 116.2 51.45 Z M 114.51 53.46 L 117.78 53.46 L 117.78 55.32 L 114.51 55.32 Z M 104 65 L 104 40 L 129 40 L 129 65 Z" fill="#bbbbbb" stroke="none" pointer-events="all"/></g><g><g transform="translate(-0.5 -0.5)"><switch><foreignObject pointer-events="none" width="100%" height="100%" requiredFeatures="http://www.w3.org/TR/SVG11/feature#Extensibility" style="overflow: visible; text-align: left;"><div xmlns="http://www.w3.org/1999/xhtml" style="display: flex; align-items: unsafe flex-start; justify-content: unsafe flex-start; width: 578px; height: 1px; padding-top: 47px; margin-left: 136px;"><div data-drawio-colors="color: #999999; " style="box-sizing: border-box; font-size: 0px; text-align: left;"><div style="display: inline-block; font-size: 12px; font-family: Helvetica; color: rgb(153, 153, 153); line-height: 1.2; pointer-events: all; font-weight: bold; white-space: normal; overflow-wrap: normal;">VPC (10.0.0.0/16)<br /><font color="#999999">Session 1 で作成済み</font></div></div></div></foreignObject><text x="136" y="59" fill="#999999" font-family="&quot;Helvetica&quot;" font-size="12px" font-weight="bold">VPC (10.0.0.0/16)...</text></switch></g></g><g data-cell-id="pubsub1"><g><path d="M 134 90 L 374 90 L 374 250 L 134 250 Z" fill="#f5f5f5" stroke="#bbbbbb" stroke-miterlimit="10" stroke-dasharray="3 3" pointer-events="none"/></g><g><g transform="translate(-0.5 -0.5)"><switch><foreignObject pointer-events="none" width="100%" height="100%" requiredFeatures="http://www.w3.org/TR/SVG11/feature#Extensibility" style="overflow: visible; text-align: left;"><div xmlns="http://www.w3.org/1999/xhtml" style="display: flex; align-items: unsafe flex-start; justify-content: unsafe flex-start; width: 208px; height: 1px; padding-top: 97px; margin-left: 166px;"><div data-drawio-colors="color: #999999; " style="box-sizing: border-box; font-size: 0px; text-align: left;"><div style="display: inline-block; font-size: 11px; font-family: Helvetica; color: rgb(153, 153, 153); line-height: 1.2; pointer-events: all; white-space: normal; overflow-wrap: normal;">Public Subnet 10.0.1.0/24 (1a)<br /><font color="#999999">Session 1 で作成済み</font></div></div></div></foreignObject><text x="166" y="108" fill="#999999" font-family="&quot;Helvetica&quot;" font-size="11px">Public Subnet 10.0.1.0/24 (1a)...</text></switch></g></g><g data-cell-id="ec2"><g><path d="M 230 140 L 278 140 L 278 188 L 230 188 Z" fill="#ed7100" stroke="none" pointer-events="all"/><rect x="234.8" y="144.8" width="38.4" height="38.4" fill="none" stroke="none" pointer-events="all"/><path d="M 245.09 172.91 L 262.23 172.91 L 262.23 155.77 L 245.09 155.77 Z M 263.6 155.77 L 266.34 155.77 L 266.34 157.14 L 263.6 157.14 L 263.6 159.89 L 266.34 159.89 L 266.34 161.26 L 263.6 161.26 L 263.6 163.31 L 266.34 163.31 L 266.34 164.69 L 263.6 164.69 L 263.6 167.43 L 266.34 167.43 L 266.34 168.8 L 263.6 168.8 L 263.6 171.54 L 266.34 171.54 L 266.34 172.91 L 263.6 172.91 L 263.6 173.01 C 263.6 173.71 263.03 174.29 262.32 174.29 L 262.23 174.29 L 262.23 177.03 L 260.86 177.03 L 260.86 174.29 L 258.11 174.29 L 258.11 177.03 L 256.74 177.03 L 256.74 174.29 L 254.69 174.29 L 254.69 177.03 L 253.31 177.03 L 253.31 174.29 L 250.57 174.29 L 250.57 177.03 L 249.2 177.03 L 249.2 174.29 L 246.46 174.29 L 246.46 177.03 L 245.09 177.03 L 245.09 174.29 L 244.99 174.29 C 244.29 174.29 243.71 173.71 243.71 173.01 L 243.71 172.91 L 241.66 172.91 L 241.66 171.54 L 243.71 171.54 L 243.71 168.8 L 241.66 168.8 L 241.66 167.43 L 243.71 167.43 L 243.71 164.69 L 241.66 164.69 L 241.66 163.31 L 243.71 163.31 L 243.71 161.26 L 241.66 161.26 L 241.66 159.89 L 243.71 159.89 L 243.71 157.14 L 241.66 157.14 L 241.66 155.77 L 243.71 155.77 L 243.71 155.68 C 243.71 154.97 244.29 154.4 244.99 154.4 L 245.09 154.4 L 245.09 151.66 L 246.46 151.66 L 246.46 154.4 L 249.2 154.4 L 249.2 151.66 L 250.57 151.66 L 250.57 154.4 L 253.31 154.4 L 253.31 151.66 L 254.69 151.66 L 254.69 154.4 L 256.74 154.4 L 256.74 151.66 L 258.11 151.66 L 258.11 154.4 L 260.86 154.4 L 260.86 151.66 L 262.23 151.66 L 262.23 154.4 L 262.32 154.4 C 263.03 154.4 263.6 154.97 263.6 155.68 Z M 254.69 181.74 C 254.69 181.79 254.65 181.83 254.6 181.83 L 236.26 181.83 C 236.21 181.83 236.17 181.79 236.17 181.74 L 236.17 163.4 C 236.17 163.35 236.21 163.31 236.26 163.31 L 240.29 163.31 L 240.29 161.94 L 236.26 161.94 C 235.45 161.94 234.8 162.6 234.8 163.4 L 234.8 181.74 C 234.8 182.55 235.45 183.2 236.26 183.2 L 254.6 183.2 C 255.4 183.2 256.06 182.55 256.06 181.74 L 256.06 178.4 L 254.69 178.4 Z M 273.2 146.26 L 273.2 164.6 C 273.2 165.4 272.55 166.06 271.74 166.06 L 267.71 166.06 L 267.71 164.69 L 271.74 164.69 C 271.79 164.69 271.83 164.65 271.83 164.6 L 271.83 146.26 C 271.83 146.21 271.79 146.17 271.74 146.17 L 253.4 146.17 C 253.35 146.17 253.31 146.21 253.31 146.26 L 253.31 150.29 L 251.94 150.29 L 251.94 146.26 C 251.94 145.45 252.6 144.8 253.4 144.8 L 271.74 144.8 C 272.55 144.8 273.2 145.45 273.2 146.26 Z" fill="#000000" stroke="none" pointer-events="all"/></g><g><g transform="translate(-0.5 -0.5)"><switch><foreignObject pointer-events="none" width="100%" height="100%" requiredFeatures="http://www.w3.org/TR/SVG11/feature#Extensibility" style="overflow: visible; text-align: left;"><div xmlns="http://www.w3.org/1999/xhtml" style="display: flex; align-items: unsafe flex-start; justify-content: unsafe center; width: 1px; height: 1px; padding-top: 195px; margin-left: 254px;"><div data-drawio-colors="color: #232F3E; " style="box-sizing: border-box; font-size: 0px; text-align: center;"><div style="display: inline-block; font-size: 10px; font-family: Helvetica; color: rgb(35, 47, 62); line-height: 1.2; pointer-events: all; white-space: nowrap;"><b>EC2</b><br />nginx + PHP<br /><font color="#999999">Session 1+2 で作成</font></div></div></div></foreignObject><text x="254" y="205" fill="#232F3E" font-family="&quot;Helvetica&quot;" font-size="10px" text-anchor="middle">EC2...</text></switch></g></g></g></g><g data-cell-id="pubsub2"><g><path d="M 414 90 L 684 90 L 684 250 L 414 250 Z" fill="#e9f3e6" stroke="#248814" stroke-miterlimit="10" pointer-events="none"/></g><g><g transform="translate(-0.5 -0.5)"><switch><foreignObject pointer-events="none" width="100%" height="100%" requiredFeatures="http://www.w3.org/TR/SVG11/feature#Extensibility" style="overflow: visible; text-align: left;"><div xmlns="http://www.w3.org/1999/xhtml" style="display: flex; align-items: unsafe flex-start; justify-content: unsafe flex-start; width: 238px; height: 1px; padding-top: 97px; margin-left: 446px;"><div data-drawio-colors="color: #248814; " style="box-sizing: border-box; font-size: 0px; text-align: left;"><div style="display: inline-block; font-size: 11px; font-family: Helvetica; color: rgb(36, 136, 20); line-height: 1.2; pointer-events: all; white-space: normal; overflow-wrap: normal;"><b>Public Subnet</b> 10.0.2.0/24 (1c)<br /><font color="#E67E22">★ Session 3 新規</font></div></div></div></foreignObject><text x="446" y="108" fill="#248814" font-family="&quot;Helvetica&quot;" font-size="11px">Public Subnet 10.0.2.0/24 (1c)...</text></switch></g></g></g><g data-cell-id="rds"><g><path d="M 374 310 L 422 310 L 422 358 L 374 358 Z" fill="#c925d1" stroke="none" pointer-events="all"/><rect x="378.8" y="314.8" width="38.4" height="38.4" fill="none" stroke="none" pointer-events="all"/><path d="M 381.14 316.17 L 387.51 322.54 L 386.54 323.51 L 380.17 317.14 L 380.17 322.34 L 378.8 322.34 L 378.8 315.49 C 378.8 315.11 379.11 314.8 379.49 314.8 L 386.34 314.8 L 386.34 316.17 Z M 417.2 315.49 L 417.2 322.34 L 415.83 322.34 L 415.83 317.14 L 409.46 323.51 L 408.49 322.54 L 414.86 316.17 L 409.66 316.17 L 409.66 314.8 L 416.51 314.8 C 416.89 314.8 417.2 315.11 417.2 315.49 Z M 415.83 345.66 L 417.2 345.66 L 417.2 352.51 C 417.2 352.89 416.89 353.2 416.51 353.2 L 409.66 353.2 L 409.66 351.83 L 414.86 351.83 L 408.49 345.46 L 409.46 344.49 L 415.83 350.86 Z M 415.49 333.46 C 415.49 331.18 412.86 328.94 408.46 327.45 L 408.9 326.15 C 413.96 327.86 416.86 330.52 416.86 333.46 C 416.86 336.4 413.96 339.06 408.9 340.77 L 408.46 339.47 C 412.86 337.99 415.49 335.74 415.49 333.46 Z M 380.55 333.46 C 380.55 335.64 383.01 337.83 387.13 339.32 L 386.67 340.61 C 381.91 338.89 379.18 336.29 379.18 333.46 C 379.18 330.64 381.91 328.03 386.67 326.31 L 387.13 327.6 C 383.01 329.09 380.55 331.28 380.55 333.46 Z M 387.51 345.46 L 381.14 351.83 L 386.34 351.83 L 386.34 353.2 L 379.49 353.2 C 379.11 353.2 378.8 352.89 378.8 352.51 L 378.8 345.66 L 380.17 345.66 L 380.17 350.86 L 386.54 344.49 Z M 398 328.02 C 393.1 328.02 390.46 326.76 390.46 326.24 C 390.46 325.72 393.1 324.46 398 324.46 C 402.9 324.46 405.54 325.72 405.54 326.24 C 405.54 326.76 402.9 328.02 398 328.02 Z M 398.02 333.34 C 393.33 333.34 390.46 332.05 390.46 331.36 L 390.46 328.02 C 392.15 328.96 395.14 329.4 398 329.4 C 400.86 329.4 403.85 328.96 405.54 328.02 L 405.54 331.36 C 405.54 332.05 402.69 333.34 398.02 333.34 Z M 398.02 338.57 C 393.33 338.57 390.46 337.29 390.46 336.59 L 390.46 333.22 C 392.12 334.2 395.08 334.71 398.02 334.71 C 400.94 334.71 403.88 334.2 405.54 333.22 L 405.54 336.59 C 405.54 337.29 402.69 338.57 398.02 338.57 Z M 398 343.27 C 393.12 343.27 390.46 341.96 390.46 341.28 L 390.46 338.46 C 392.12 339.44 395.08 339.94 398.02 339.94 C 400.94 339.94 403.88 339.44 405.54 338.46 L 405.54 341.28 C 405.54 341.96 402.88 343.27 398 343.27 Z M 398 323.09 C 393.71 323.09 389.09 324.07 389.09 326.24 L 389.09 341.28 C 389.09 343.49 393.57 344.64 398 344.64 C 402.43 344.64 406.91 343.49 406.91 341.28 L 406.91 326.24 C 406.91 324.07 402.29 323.09 398 323.09 Z" fill="#000000" stroke="none" pointer-events="all"/></g><g><g transform="translate(-0.5 -0.5)"><switch><foreignObject pointer-events="none" width="100%" height="100%" requiredFeatures="http://www.w3.org/TR/SVG11/feature#Extensibility" style="overflow: visible; text-align: left;"><div xmlns="http://www.w3.org/1999/xhtml" style="display: flex; align-items: unsafe flex-start; justify-content: unsafe center; width: 1px; height: 1px; padding-top: 365px; margin-left: 398px;"><div data-drawio-colors="color: #232F3E; " style="box-sizing: border-box; font-size: 0px; text-align: center;"><div style="display: inline-block; font-size: 10px; font-family: Helvetica; color: rgb(35, 47, 62); line-height: 1.2; pointer-events: all; white-space: nowrap;"><b>RDS (MySQL)</b><br />db.t3.micro<br /><font color="#E67E22">★ Session 3 新規</font></div></div></div></foreignObject><text x="398" y="375" fill="#232F3E" font-family="&quot;Helvetica&quot;" font-size="10px" text-anchor="middle">RDS (MySQ...</text></switch></g></g></g><g data-cell-id="dbsubnet"><g><rect x="484" y="315" width="150" height="40" rx="6" ry="6" fill="#f3e5f5" stroke="#c925d1" pointer-events="all"/></g><g><g transform="translate(-0.5 -0.5)"><switch><foreignObject pointer-events="none" width="100%" height="100%" requiredFeatures="http://www.w3.org/TR/SVG11/feature#Extensibility" style="overflow: visible; text-align: left;"><div xmlns="http://www.w3.org/1999/xhtml" style="display: flex; align-items: unsafe center; justify-content: unsafe center; width: 148px; height: 1px; padding-top: 335px; margin-left: 485px;"><div data-drawio-colors="color: rgb(0, 0, 0); " style="box-sizing: border-box; font-size: 0px; text-align: center;"><div style="display: inline-block; font-size: 10px; font-family: Helvetica; color: rgb(0, 0, 0); line-height: 1.2; pointer-events: all; white-space: normal; overflow-wrap: normal;">DB Subnet Group<br />(Subnet 1a + 1c)<br /><font color="#E67E22">★ 新規</font></div></div></div></foreignObject><text x="559" y="338" fill="rgb(0, 0, 0)" font-family="&quot;Helvetica&quot;" font-size="10px" text-anchor="middle">DB Subnet Group...</text></switch></g></g></g></g></g><g data-cell-id="user"><g><rect x="4" y="120" width="48" height="48" fill="none" stroke="none" pointer-events="all"/><path d="M 8.39 165.82 C 8.94 155 17.52 146.38 28 146.38 C 31.54 146.38 35.01 147.37 38.04 149.26 C 43.66 152.76 47.26 159.04 47.61 165.82 Z M 17.3 132.96 C 17.3 127.02 22.1 122.18 28 122.18 C 33.9 122.18 38.7 127.02 38.7 132.96 C 38.7 138.9 33.9 143.73 28 143.73 C 22.1 143.73 17.3 138.9 17.3 132.96 Z M 39.2 147.41 C 37.31 146.23 35.25 145.37 33.13 144.84 C 37.68 142.84 40.88 138.27 40.88 132.96 C 40.88 125.81 35.1 120 28 120 C 20.9 120 15.12 125.81 15.12 132.96 C 15.12 138.28 18.32 142.85 22.89 144.85 C 13.32 147.25 6.18 156.22 6.18 166.91 C 6.18 167.51 6.67 168 7.27 168 L 48.73 168 C 49.33 168 49.82 167.51 49.82 166.91 C 49.82 158.97 45.75 151.49 39.2 147.41 Z" fill="#232f3e" stroke="none" pointer-events="all"/></g><g><g transform="translate(-0.5 -0.5)"><switch><foreignObject pointer-events="none" width="100%" height="100%" requiredFeatures="http://www.w3.org/TR/SVG11/feature#Extensibility" style="overflow: visible; text-align: left;"><div xmlns="http://www.w3.org/1999/xhtml" style="display: flex; align-items: unsafe flex-start; justify-content: unsafe center; width: 1px; height: 1px; padding-top: 175px; margin-left: 28px;"><div data-drawio-colors="color: #232F3E; " style="box-sizing: border-box; font-size: 0px; text-align: center;"><div style="display: inline-block; font-size: 12px; font-family: Helvetica; color: rgb(35, 47, 62); line-height: 1.2; pointer-events: all; white-space: nowrap;">User<br />(ブラウザ)</div></div></div></foreignObject><text x="28" y="187" fill="#232F3E" font-family="&quot;Helvetica&quot;" font-size="12px" text-anchor="middle">User...</text></switch></g></g></g><g data-cell-id="e1"><g><path d="M 49.82 144 L 129.9 144 Q 139.9 144 139.9 154 L 139.9 159 Q 139.9 164 149.9 164 L 221.76 164" fill="none" stroke="#ed7100" stroke-width="2" stroke-miterlimit="10" pointer-events="stroke"/><path d="M 227.76 164 L 219.76 168 L 221.76 164 L 219.76 160 Z" fill="#ed7100" stroke="#ed7100" stroke-width="2" stroke-miterlimit="10" pointer-events="all"/></g><g><g transform="translate(-0.5 -0.5)"><switch><foreignObject pointer-events="none" width="100%" height="100%" requiredFeatures="http://www.w3.org/TR/SVG11/feature#Extensibility" style="overflow: visible; text-align: left;"><div xmlns="http://www.w3.org/1999/xhtml" style="display: flex; align-items: unsafe center; justify-content: unsafe center; width: 1px; height: 1px; padding-top: 154px; margin-left: 140px;"><div data-drawio-colors="color: #ED7100; background-color: rgb(255, 255, 255); " style="box-sizing: border-box; font-size: 0px; text-align: center;"><div style="display: inline-block; font-size: 11px; font-family: Helvetica; color: rgb(237, 113, 0); line-height: 1.2; pointer-events: all; background-color: rgb(255, 255, 255); white-space: nowrap;">HTTP:80</div></div></div></foreignObject><text x="140" y="157" fill="#ED7100" font-family="&quot;Helvetica&quot;" font-size="11px" text-anchor="middle">HTTP:80</text></switch></g></g></g><g data-cell-id="e2"><g><path d="M 278 164 L 388 164 Q 398 164 398 174 L 398 301.76" fill="none" stroke="#c925d1" stroke-width="2" stroke-miterlimit="10" pointer-events="stroke"/><path d="M 398 307.76 L 394 299.76 L 398 301.76 L 402 299.76 Z" fill="#c925d1" stroke="#c925d1" stroke-width="2" stroke-miterlimit="10" pointer-events="all"/></g><g><g transform="translate(-0.5 -0.5)"><switch><foreignObject pointer-events="none" width="100%" height="100%" requiredFeatures="http://www.w3.org/TR/SVG11/feature#Extensibility" style="overflow: visible; text-align: left;"><div xmlns="http://www.w3.org/1999/xhtml" style="display: flex; align-items: unsafe center; justify-content: unsafe center; width: 1px; height: 1px; padding-top: 177px; margin-left: 398px;"><div data-drawio-colors="color: #C925D1; background-color: rgb(255, 255, 255); " style="box-sizing: border-box; font-size: 0px; text-align: center;"><div style="display: inline-block; font-size: 11px; font-family: Helvetica; color: rgb(201, 37, 209); line-height: 1.2; pointer-events: all; font-weight: bold; background-color: rgb(255, 255, 255); white-space: nowrap;">MySQL:3306</div></div></div></foreignObject><text x="398" y="180" fill="#C925D1" font-family="&quot;Helvetica&quot;" font-size="11px" text-anchor="middle" font-weight="bold">MySQL:3306</text></switch></g></g></g></g></g></g><switch><g requiredFeatures="http://www.w3.org/TR/SVG11/feature#Extensibility"/><a transform="translate(0,-5)" xlink:href="https://www.drawio.com/doc/faq/svg-export-text-problems" target="_blank"><text text-anchor="middle" font-size="10px" x="50%" y="100%">Text is not SVG - cannot display</text></a></switch></svg>