<?xml version="1.0" encoding="UTF-8"?>
<!DOCTYPE svg PUBLIC "-//W3C//DTD SVG 1.1//EN" "http://www.w3.org/Graphics/SVG/1.1/DTD/svg11.dtd">
<svg xmlns="http://www.w3.org/2000/svg" xmlns:xlink="http://www.w3.org/1999/xlink" version="1.1" width="862px" height="502px" viewBox="-0.5 -0.5 862 502"><defs/><g><g data-cell-id="0"><g data-cell-id="1"><g data-cell-id="local"><g><path d="M 0 40 L 160 40 L 160 420 L 0 420 Z" fill="none" stroke="#147eba" stroke-miterlimit="10" pointer-events="none"/><path d="M 0 40 L 25 40 L 25 65 L 0 65 Z M 9.89 43.57 C 9.7 43.57 9.54 43.73 9.54 43.93 L 9.54 49.46 L 6.92 49.46 C 6.72 49.46 6.56 49.62 6.56 49.82 L 6.56 61.07 C 6.56 61.17 6.6 61.26 6.67 61.32 C 6.74 61.39 6.83 61.43 6.92 61.43 L 18.08 61.43 C 18.17 61.43 18.26 61.39 18.33 61.32 C 18.4 61.26 18.44 61.17 18.44 61.07 L 18.44 49.82 C 18.44 49.62 18.28 49.46 18.08 49.46 L 15.46 49.46 L 15.46 43.93 C 15.46 43.83 15.43 43.74 15.36 43.68 C 15.29 43.61 15.2 43.57 15.11 43.57 Z M 10.25 44.29 L 14.75 44.29 L 14.75 49.82 C 14.75 50.02 14.91 50.18 15.11 50.18 L 17.72 50.18 L 17.72 60.71 L 7.28 60.71 L 7.28 50.18 L 9.89 50.18 C 9.99 50.18 10.08 50.14 10.15 50.07 C 10.21 50.01 10.25 49.92 10.25 49.82 Z M 12.19 45.94 L 12.19 47.79 L 12.91 47.79 L 12.91 45.94 Z M 12.19 48.91 L 12.19 50.77 L 12.91 50.77 L 12.91 48.91 Z M 8.84 51.65 L 8.84 53.51 L 9.56 53.51 L 9.56 51.65 Z M 12.19 51.65 L 12.19 53.51 L 12.91 53.51 L 12.91 51.65 Z M 15.54 51.65 L 15.54 53.51 L 16.26 53.51 L 16.26 51.65 Z M 8.84 54.63 L 8.84 56.49 L 9.56 56.49 L 9.56 54.63 Z M 12.19 54.63 L 12.19 56.49 L 12.91 56.49 L 12.91 54.63 Z M 15.54 54.63 L 15.54 56.49 L 16.26 56.49 L 16.26 54.63 Z M 8.84 57.61 L 8.84 59.46 L 9.56 59.46 L 9.56 57.61 Z M 12.19 57.61 L 12.19 59.46 L 12.91 59.46 L 12.91 57.61 Z M 15.54 57.61 L 15.54 59.46 L 16.26 59.46 L 16.26 57.61 Z" fill="#147eba" stroke="none" pointer-events="all"/></g><g><g transform="translate(-0.5 -0.5)"><switch><foreignObject pointer-events="none" width="100%" height="100%" requiredFeatures="http://www.w3.org/TR/SVG11/feature#Extensibility" style="overflow: visible; text-align: left;"><div xmlns="http://www.w3.org/1999/xhtml" style="display: flex; align-items: unsafe flex-start; justify-content: unsafe flex-start; width: 128px; height: 1px; padding-top: 47px; margin-left: 32px;"><div data-drawio-colors="color: #147EBA; " style="box-sizing: border-box; font-size: 0px; text-align: left;"><div style="display: inline-block; font-size: 12px; font-family: Helvetica; color: rgb(20, 126, 186); line-height: 1.2; pointer-events: all; font-weight: bold; white-space: normal; overflow-wrap: normal;">ローカル環境 (VSCode)</div></div></div></foreignObject><text x="32" y="59" fill="#147EBA" font-family="&quot;Helvetica&quot;" font-size="12px" font-weight="bold">ローカル環境 (VSCode)</text></switch></g></g><g data-cell-id="ansible"><g><rect x="55" y="100" width="48" height="48" fill="none" stroke="none" pointer-events="all"/><path d="M 91.3 100 L 66.7 100 C 65.81 100 65.1 100.72 65.1 101.6 L 65.1 146.4 C 65.1 147.28 65.81 148 66.7 148 L 91.3 148 C 92.19 148 92.9 147.28 92.9 146.4 L 92.9 101.6 C 92.9 100.72 92.19 100 91.3 100 Z M 67.28 145.82 L 67.28 102.18 L 90.72 102.18 L 90.72 145.82 Z M 69.93 107.08 L 88.07 107.08 L 88.07 104.9 L 69.93 104.9 Z M 69.93 111.74 L 88.07 111.74 L 88.07 109.56 L 69.93 109.56 Z M 69.93 116.57 L 88.07 116.57 L 88.07 114.39 L 69.93 114.39 Z M 69.93 121.29 L 88.07 121.29 L 88.07 119.11 L 69.93 119.11 Z" fill="#232f3e" stroke="none" pointer-events="all"/></g><g><g transform="translate(-0.5 -0.5)"><switch><foreignObject pointer-events="none" width="100%" height="100%" requiredFeatures="http://www.w3.org/TR/SVG11/feature#Extensibility" style="overflow: visible; text-align: left;"><div xmlns="http://www.w3.org/1999/xhtml" style="display: flex; align-items: unsafe flex-start; justify-content: unsafe center; width: 1px; height: 1px; padding-top: 155px; margin-left: 79px;"><div data-drawio-colors="color: #232F3E; " style="box-sizing: border-box; font-size: 0px; text-align: center;"><div style="display: inline-block; font-size: 11px; font-family: Helvetica; color: rgb(35, 47, 62); line-height: 1.2; pointer-events: all; white-space: nowrap;">Ansible<br />Control Node</div></div></div></foreignObject><text x="79" y="166" fill="#232F3E" font-family="&quot;Helvetica&quot;" font-size="11px" text-anchor="middle">Ansible...</text></switch></g></g></g><g data-cell-id="pb1"><g><rect x="10" y="220" width="140" height="25" rx="3.75" ry="3.75" fill="#dae8fc" stroke="#6c8ebf" pointer-events="all"/></g><g><g transform="translate(-0.5 -0.5)"><switch><foreignObject pointer-events="none" width="100%" height="100%" requiredFeatures="http://www.w3.org/TR/SVG11/feature#Extensibility" style="overflow: visible; text-align: left;"><div xmlns="http://www.w3.org/1999/xhtml" style="display: flex; align-items: unsafe center; justify-content: unsafe center; width: 138px; height: 1px; padding-top: 233px; margin-left: 11px;"><div data-drawio-colors="color: rgb(0, 0, 0); " style="box-sizing: border-box; font-size: 0px; text-align: center;"><div style="display: inline-block; font-size: 10px; font-family: Helvetica; color: rgb(0, 0, 0); line-height: 1.2; pointer-events: all; white-space: normal; overflow-wrap: normal;">install_ssm_agent.yml</div></div></div></foreignObject><text x="80" y="236" fill="rgb(0, 0, 0)" font-family="&quot;Helvetica&quot;" font-size="10px" text-anchor="middle">install_ssm_agent.yml</text></switch></g></g></g><g data-cell-id="pb2"><g><rect x="10" y="255" width="140" height="25" rx="3.75" ry="3.75" fill="#dae8fc" stroke="#6c8ebf" pointer-events="all"/></g><g><g transform="translate(-0.5 -0.5)"><switch><foreignObject pointer-events="none" width="100%" height="100%" requiredFeatures="http://www.w3.org/TR/SVG11/feature#Extensibility" style="overflow: visible; text-align: left;"><div xmlns="http://www.w3.org/1999/xhtml" style="display: flex; align-items: unsafe center; justify-content: unsafe center; width: 138px; height: 1px; padding-top: 268px; margin-left: 11px;"><div data-drawio-colors="color: rgb(0, 0, 0); " style="box-sizing: border-box; font-size: 0px; text-align: center;"><div style="display: inline-block; font-size: 10px; font-family: Helvetica; color: rgb(0, 0, 0); line-height: 1.2; pointer-events: all; white-space: normal; overflow-wrap: normal;">install_cwagent.yml</div></div></div></foreignObject><text x="80" y="271" fill="rgb(0, 0, 0)" font-family="&quot;Helvetica&quot;" font-size="10px" text-anchor="middle">install_cwagent.yml</text></switch></g></g></g><g data-cell-id="pb3"><g><rect x="10" y="290" width="140" height="25" rx="3.75" ry="3.75" fill="#dae8fc" stroke="#6c8ebf" pointer-events="all"/></g><g><g transform="translate(-0.5 -0.5)"><switch><foreignObject pointer-events="none" width="100%" height="100%" requiredFeatures="http://www.w3.org/TR/SVG11/feature#Extensibility" style="overflow: visible; text-align: left;"><div xmlns="http://www.w3.org/1999/xhtml" style="display: flex; align-items: unsafe center; justify-content: unsafe center; width: 138px; height: 1px; padding-top: 303px; margin-left: 11px;"><div data-drawio-colors="color: rgb(0, 0, 0); " style="box-sizing: border-box; font-size: 0px; text-align: center;"><div style="display: inline-block; font-size: 10px; font-family: Helvetica; color: rgb(0, 0, 0); line-height: 1.2; pointer-events: all; white-space: normal; overflow-wrap: normal;">configure_cwagent.yml</div></div></div></foreignObject><text x="80" y="306" fill="rgb(0, 0, 0)" font-family="&quot;Helvetica&quot;" font-size="10px" text-anchor="middle">configure_cwagent.yml</text></switch></g></g></g></g><g data-cell-id="aws"><g><path d="M 220 0 L 860 0 L 860 500 L 220 500 Z" fill="none" stroke="#232f3e" stroke-miterlimit="10" pointer-events="none"/><path d="M 226.09 7.18 C 226.01 7.18 225.93 7.19 225.85 7.19 C 225.5 7.19 225.15 7.23 224.81 7.32 C 224.53 7.39 224.25 7.49 223.98 7.62 C 223.9 7.65 223.84 7.7 223.79 7.76 C 223.75 7.83 223.74 7.91 223.74 7.99 L 223.74 8.32 C 223.74 8.46 223.78 8.53 223.88 8.53 L 223.99 8.53 L 224.22 8.44 C 224.45 8.35 224.69 8.27 224.94 8.21 C 225.17 8.16 225.41 8.13 225.65 8.13 C 226.04 8.09 226.43 8.2 226.74 8.44 C 226.97 8.74 227.09 9.12 227.05 9.5 L 227.05 9.99 C 226.78 9.93 226.54 9.88 226.29 9.84 C 226.05 9.81 225.81 9.79 225.57 9.79 C 224.98 9.76 224.4 9.94 223.94 10.31 C 223.54 10.65 223.32 11.15 223.34 11.68 C 223.31 12.15 223.49 12.62 223.82 12.96 C 224.18 13.29 224.66 13.46 225.15 13.44 C 225.91 13.45 226.63 13.11 227.11 12.51 C 227.18 12.66 227.24 12.79 227.31 12.91 C 227.38 13.02 227.46 13.12 227.55 13.21 C 227.6 13.27 227.67 13.31 227.75 13.31 C 227.81 13.31 227.87 13.29 227.92 13.25 L 228.34 12.97 C 228.41 12.93 228.46 12.86 228.47 12.77 C 228.47 12.72 228.45 12.67 228.42 12.62 C 228.34 12.47 228.26 12.31 228.21 12.14 C 228.15 11.95 228.12 11.75 228.13 11.55 L 228.14 9.37 C 228.2 8.77 228 8.18 227.59 7.74 C 227.17 7.39 226.64 7.19 226.09 7.18 Z M 239.89 7.19 C 239.78 7.19 239.68 7.19 239.57 7.2 C 239.29 7.2 239 7.24 238.73 7.31 C 238.47 7.38 238.23 7.5 238.01 7.66 C 237.82 7.81 237.66 7.99 237.54 8.21 C 237.42 8.43 237.35 8.67 237.36 8.92 C 237.36 9.27 237.48 9.61 237.69 9.89 C 237.97 10.22 238.34 10.46 238.76 10.56 L 239.72 10.87 C 239.97 10.93 240.2 11.05 240.39 11.22 C 240.51 11.35 240.58 11.51 240.57 11.69 C 240.58 11.94 240.45 12.18 240.23 12.31 C 239.93 12.48 239.6 12.56 239.26 12.54 C 238.99 12.54 238.72 12.51 238.46 12.45 C 238.22 12.4 237.98 12.32 237.75 12.22 L 237.59 12.15 C 237.54 12.14 237.5 12.14 237.46 12.15 C 237.36 12.15 237.31 12.22 237.31 12.36 L 237.31 12.69 C 237.31 12.76 237.32 12.82 237.35 12.89 C 237.4 12.97 237.47 13.03 237.56 13.07 C 237.8 13.19 238.06 13.28 238.32 13.34 C 238.66 13.41 239 13.45 239.35 13.45 L 239.33 13.46 C 239.66 13.45 239.98 13.4 240.29 13.3 C 240.55 13.22 240.8 13.09 241.01 12.92 C 241.21 12.77 241.38 12.57 241.49 12.34 C 241.61 12.1 241.67 11.83 241.66 11.56 C 241.67 11.23 241.56 10.9 241.36 10.63 C 241.09 10.32 240.73 10.09 240.33 9.99 L 239.39 9.69 C 239.13 9.61 238.88 9.49 238.67 9.32 C 238.54 9.2 238.47 9.03 238.47 8.85 C 238.46 8.61 238.58 8.38 238.79 8.25 C 239.06 8.11 239.36 8.05 239.67 8.06 C 240.11 8.06 240.55 8.14 240.96 8.32 C 241.04 8.37 241.12 8.4 241.21 8.41 C 241.31 8.41 241.36 8.34 241.36 8.19 L 241.36 7.88 C 241.37 7.8 241.35 7.72 241.31 7.66 C 241.25 7.59 241.18 7.54 241.11 7.49 L 240.83 7.38 L 240.45 7.27 L 240.01 7.2 C 239.97 7.2 239.93 7.19 239.89 7.19 Z M 236.02 7.36 C 235.94 7.35 235.86 7.38 235.79 7.42 C 235.72 7.5 235.68 7.59 235.66 7.69 L 234.51 12.14 L 233.47 7.71 C 233.45 7.61 233.41 7.52 233.34 7.44 C 233.26 7.39 233.17 7.37 233.07 7.38 L 232.54 7.38 C 232.44 7.37 232.35 7.39 232.27 7.44 C 232.2 7.51 232.15 7.61 232.14 7.71 L 231.09 12.14 L 229.97 7.7 C 229.95 7.6 229.91 7.51 229.84 7.44 C 229.76 7.39 229.67 7.36 229.58 7.37 L 228.92 7.37 C 228.81 7.37 228.76 7.43 228.76 7.54 C 228.77 7.63 228.79 7.72 228.82 7.81 L 230.38 12.95 C 230.4 13.05 230.45 13.14 230.52 13.21 C 230.6 13.26 230.69 13.29 230.78 13.28 L 231.36 13.26 C 231.46 13.27 231.55 13.25 231.63 13.19 C 231.7 13.12 231.74 13.03 231.76 12.93 L 232.79 8.64 L 233.82 12.93 C 233.83 13.03 233.88 13.12 233.95 13.19 C 234.03 13.25 234.12 13.27 234.21 13.26 L 234.78 13.26 C 234.88 13.27 234.97 13.25 235.04 13.2 C 235.11 13.13 235.16 13.03 235.18 12.94 L 236.79 7.79 C 236.84 7.72 236.84 7.63 236.84 7.63 C 236.84 7.59 236.84 7.56 236.84 7.52 C 236.84 7.48 236.82 7.43 236.79 7.4 C 236.76 7.37 236.72 7.35 236.67 7.36 L 236.05 7.36 C 236.04 7.36 236.03 7.36 236.02 7.36 Z M 225.65 10.62 C 225.7 10.62 225.75 10.62 225.8 10.62 L 226.43 10.62 C 226.64 10.64 226.85 10.67 227.06 10.71 L 227.06 11.01 C 227.07 11.21 227.05 11.4 227 11.59 C 226.96 11.75 226.88 11.9 226.77 12.01 C 226.61 12.21 226.39 12.36 226.14 12.44 C 225.91 12.52 225.67 12.56 225.43 12.56 C 225.18 12.6 224.93 12.53 224.73 12.37 C 224.55 12.18 224.46 11.92 224.49 11.66 C 224.47 11.36 224.59 11.08 224.81 10.89 C 225.06 10.72 225.35 10.62 225.65 10.62 Z M 241.04 14.72 C 240.34 14.73 239.51 14.89 238.88 15.33 C 238.69 15.46 238.72 15.63 238.94 15.63 C 239.64 15.54 241.21 15.35 241.5 15.71 C 241.78 16.06 241.19 17.54 240.94 18.21 C 240.86 18.41 241.03 18.49 241.21 18.34 C 242.39 17.36 242.72 15.3 242.46 15 C 242.32 14.85 241.74 14.71 241.04 14.72 Z M 222.65 15.1 C 222.5 15.12 222.42 15.3 222.58 15.44 C 225.29 17.89 228.82 19.23 232.48 19.21 C 235.37 19.22 238.2 18.36 240.59 16.74 C 240.95 16.47 240.63 16.07 240.26 16.23 C 237.87 17.24 235.3 17.76 232.71 17.77 C 229.23 17.78 225.82 16.87 222.81 15.14 C 222.75 15.11 222.69 15.1 222.65 15.1 Z M 220 0 L 245 0 L 245 25 L 220 25 Z" fill="#232f3e" stroke="none" pointer-events="all"/></g><g><g transform="translate(-0.5 -0.5)"><switch><foreignObject pointer-events="none" width="100%" height="100%" requiredFeatures="http://www.w3.org/TR/SVG11/feature#Extensibility" style="overflow: visible; text-align: left;"><div xmlns="http://www.w3.org/1999/xhtml" style="display: flex; align-items: unsafe flex-start; justify-content: unsafe flex-start; width: 608px; height: 1px; padding-top: 7px; margin-left: 252px;"><div data-drawio-colors="color: #232F3E; " style="box-sizing: border-box; font-size: 0px; text-align: left;"><div style="display: inline-block; font-size: 12px; font-family: Helvetica; color: rgb(35, 47, 62); line-height: 1.2; pointer-events: all; font-weight: bold; white-space: normal; overflow-wrap: normal;">AWS Cloud</div></div></div></foreignObject><text x="252" y="19" fill="#232F3E" font-family="&quot;Helvetica&quot;" font-size="12px" font-weight="bold">AWS Cloud</text></switch></g></g><g data-cell-id="iam"><g><path d="M 260 50 L 308 50 L 308 98 L 260 98 Z" fill="#dd344c" stroke="none" pointer-events="all"/><rect x="264.8" y="54.8" width="38.4" height="38.4" fill="none" stroke="none" pointer-events="all"/><path d="M 266.17 87.03 L 301.83 87.03 L 301.83 60.97 L 266.17 60.97 Z M 303.2 60.29 L 303.2 87.71 C 303.2 88.09 302.89 88.4 302.51 88.4 L 265.49 88.4 C 265.11 88.4 264.8 88.09 264.8 87.71 L 264.8 60.29 C 264.8 59.91 265.11 59.6 265.49 59.6 L 302.51 59.6 C 302.89 59.6 303.2 59.91 303.2 60.29 Z M 286.74 79.49 L 297.03 79.49 L 297.03 78.11 L 286.74 78.11 Z M 295.66 75.37 L 299.09 75.37 L 299.09 74 L 295.66 74 Z M 286.74 75.37 L 292.23 75.37 L 292.23 74 L 286.74 74 Z M 276.46 78.11 C 276.46 77.74 276.15 77.43 275.77 77.43 C 275.39 77.43 275.09 77.74 275.09 78.11 C 275.09 78.49 275.39 78.8 275.77 78.8 C 276.15 78.8 276.46 78.49 276.46 78.11 Z M 277.83 78.11 C 277.83 79.01 277.25 79.76 276.46 80.05 L 276.46 81.54 L 275.09 81.54 L 275.09 80.04 C 274.29 79.76 273.71 79.01 273.71 78.11 C 273.71 76.98 274.64 76.06 275.77 76.06 C 276.91 76.06 277.83 76.98 277.83 78.11 Z M 269.6 83.6 L 281.94 83.6 L 281.94 80.86 L 279.2 80.86 L 279.2 79.49 L 281.94 79.49 L 281.94 77.43 L 279.2 77.43 L 279.2 76.06 L 281.94 76.06 L 281.94 74 L 269.6 74 Z M 271.66 72.63 L 279.89 72.63 L 279.89 67.83 C 279.89 66.25 277.96 64.86 275.77 64.86 L 275.77 64.86 C 273.58 64.86 271.66 66.25 271.66 67.83 Z M 268.23 84.28 L 268.23 73.31 C 268.23 73.13 268.3 72.96 268.43 72.83 C 268.56 72.7 268.74 72.63 268.92 72.63 L 270.29 72.63 L 270.29 67.83 C 270.29 65.44 272.75 63.49 275.77 63.49 L 275.77 63.49 C 278.8 63.49 281.26 65.44 281.26 67.83 L 281.26 72.63 L 282.63 72.63 C 283.01 72.63 283.31 72.94 283.31 73.32 L 283.31 84.29 C 283.31 84.47 283.24 84.64 283.11 84.77 C 282.98 84.9 282.81 84.97 282.62 84.97 L 268.91 84.97 C 268.54 84.97 268.23 84.66 268.23 84.28 Z M 297.71 71.26 L 299.09 71.26 L 299.09 69.89 L 297.71 69.89 Z M 286.74 71.26 L 294.29 71.26 L 294.29 69.89 L 286.74 69.89 Z" fill="#000000" stroke="none" pointer-events="all"/></g><g><g transform="translate(-0.5 -0.5)"><switch><foreignObject pointer-events="none" width="100%" height="100%" requiredFeatures="http://www.w3.org/TR/SVG11/feature#Extensibility" style="overflow: visible; text-align: left;"><div xmlns="http://www.w3.org/1999/xhtml" style="display: flex; align-items: unsafe flex-start; justify-content: unsafe center; width: 1px; height: 1px; padding-top: 105px; margin-left: 284px;"><div data-drawio-colors="color: #232F3E; " style="box-sizing: border-box; font-size: 0px; text-align: center;"><div style="display: inline-block; font-size: 10px; font-family: Helvetica; color: rgb(35, 47, 62); line-height: 1.2; pointer-events: all; white-space: nowrap;">IAM Role<br />ec2-agent-role</div></div></div></foreignObject><text x="284" y="115" fill="#232F3E" font-family="&quot;Helvetica&quot;" font-size="10px" text-anchor="middle">IAM Role...</text></switch></g></g></g><g data-cell-id="policies"><g><rect x="230" y="145" width="195" height="35" rx="5.25" ry="5.25" fill="#f8cecc" stroke="#b85450" pointer-events="all"/></g><g><g transform="translate(-0.5 -0.5)"><switch><foreignObject pointer-events="none" width="100%" height="100%" requiredFeatures="http://www.w3.org/TR/SVG11/feature#Extensibility" style="overflow: visible; text-align: left;"><div xmlns="http://www.w3.org/1999/xhtml" style="display: flex; align-items: unsafe center; justify-content: unsafe flex-start; width: 188px; height: 1px; padding-top: 163px; margin-left: 237px;"><div data-drawio-colors="color: rgb(0, 0, 0); " style="box-sizing: border-box; font-size: 0px; text-align: left;"><div style="display: inline-block; font-size: 9px; font-family: Helvetica; color: rgb(0, 0, 0); line-height: 1.2; pointer-events: all; white-space: normal; overflow-wrap: normal;">• CloudWatchAgentServerPolicy<br />• AmazonSSMManagedInstanceCore</div></div></div></foreignObject><text x="237" y="165" fill="rgb(0, 0, 0)" font-family="&quot;Helvetica&quot;" font-size="9px">• CloudWatchAgentServerPolicy...</text></switch></g></g></g><g data-cell-id="vpc"><g><path d="M 470 30 L 840 30 L 840 230 L 470 230 Z" fill="none" stroke="#248814" stroke-miterlimit="10" pointer-events="none"/><path d="M 480.59 36.65 C 480.53 36.65 480.48 36.65 480.42 36.65 L 480.42 36.65 C 479.11 36.68 478.03 37.24 477.14 38.25 C 477.13 38.25 477.13 38.25 477.13 38.25 C 476.2 39.36 475.87 40.52 475.96 41.73 C 474.81 42.06 474.12 42.92 473.76 43.74 C 473.75 43.75 473.75 43.76 473.74 43.78 C 473.33 45.05 473.68 46.36 474.24 47.16 C 474.25 47.17 474.25 47.17 474.26 47.18 C 474.94 48.05 475.97 48.53 477.02 48.53 L 488.17 48.53 C 489.19 48.53 490.07 48.16 490.8 47.37 C 491.25 46.94 491.49 46.29 491.58 45.59 C 491.67 44.9 491.61 44.16 491.32 43.55 C 491.31 43.54 491.31 43.53 491.31 43.52 C 490.8 42.62 489.95 41.81 488.76 41.64 C 488.74 40.79 488.28 39.99 487.68 39.56 C 487.67 39.55 487.66 39.55 487.65 39.54 C 487.01 39.18 486.4 39.14 485.91 39.3 C 485.6 39.4 485.36 39.56 485.14 39.74 C 484.51 38.36 483.43 37.18 481.81 36.79 C 481.81 36.79 481.81 36.79 481.81 36.79 C 481.38 36.7 480.97 36.65 480.59 36.65 Z M 480.43 37.38 C 480.8 37.38 481.2 37.43 481.64 37.53 C 483.16 37.89 484.15 39.07 484.66 40.48 C 484.71 40.6 484.81 40.69 484.94 40.72 C 485.07 40.74 485.2 40.7 485.29 40.61 C 485.54 40.34 485.83 40.11 486.14 40.01 C 486.44 39.91 486.78 39.92 487.26 40.18 C 487.67 40.49 488.11 41.31 488.03 41.9 C 488.01 42.01 488.05 42.12 488.12 42.2 C 488.19 42.28 488.29 42.33 488.39 42.33 C 489.46 42.34 490.16 43.02 490.64 43.88 C 490.85 44.3 490.91 44.92 490.84 45.5 C 490.76 46.07 490.53 46.59 490.28 46.83 C 490.27 46.84 490.27 46.85 490.26 46.85 C 489.65 47.53 489.03 47.78 488.17 47.78 L 477.02 47.78 C 476.2 47.78 475.39 47.41 474.85 46.73 C 474.44 46.13 474.14 45.02 474.46 44.02 C 474.79 43.27 475.36 42.55 476.41 42.36 C 476.6 42.32 476.74 42.14 476.71 41.94 C 476.56 40.79 476.8 39.81 477.7 38.74 C 478.49 37.85 479.33 37.39 480.43 37.38 Z M 482.2 40.7 C 481.77 40.7 481.4 40.93 481.13 41.21 C 480.85 41.5 480.64 41.85 480.64 42.25 L 480.64 42.71 L 480.14 42.71 C 480.04 42.71 479.94 42.75 479.87 42.82 C 479.8 42.89 479.76 42.98 479.76 43.08 L 479.76 45.7 C 479.76 45.8 479.8 45.89 479.87 45.96 C 479.94 46.03 480.04 46.07 480.14 46.07 L 484.16 46.07 C 484.26 46.07 484.35 46.03 484.42 45.96 C 484.49 45.89 484.53 45.8 484.53 45.7 L 484.53 43.08 C 484.53 42.98 484.49 42.89 484.42 42.82 C 484.35 42.75 484.26 42.71 484.16 42.71 L 483.68 42.71 L 483.68 42.25 C 483.68 41.84 483.47 41.47 483.21 41.2 C 482.94 40.92 482.61 40.7 482.2 40.7 Z M 482.2 41.45 C 482.29 41.45 482.5 41.54 482.67 41.72 C 482.83 41.89 482.93 42.11 482.93 42.25 L 482.93 42.71 L 481.39 42.71 L 481.39 42.25 C 481.39 42.15 481.49 41.91 481.66 41.74 C 481.83 41.56 482.06 41.45 482.2 41.45 Z M 480.51 43.46 L 483.78 43.46 L 483.78 45.32 L 480.51 45.32 Z M 470 55 L 470 30 L 495 30 L 495 55 Z" fill="#248814" stroke="none" pointer-events="all"/></g><g><g transform="translate(-0.5 -0.5)"><switch><foreignObject pointer-events="none" width="100%" height="100%" requiredFeatures="http://www.w3.org/TR/SVG11/feature#Extensibility" style="overflow: visible; text-align: left;"><div xmlns="http://www.w3.org/1999/xhtml" style="display: flex; align-items: unsafe flex-start; justify-content: unsafe flex-start; width: 338px; height: 1px; padding-top: 37px; margin-left: 502px;"><div data-drawio-colors="color: #AAB7B8; " style="box-sizing: border-box; font-size: 0px; text-align: left;"><div style="display: inline-block; font-size: 12px; font-family: Helvetica; color: rgb(170, 183, 184); line-height: 1.2; pointer-events: all; font-weight: bold; white-space: normal; overflow-wrap: normal;">VPC</div></div></div></foreignObject><text x="502" y="49" fill="#AAB7B8" font-family="&quot;Helvetica&quot;" font-size="12px" font-weight="bold">VPC</text></switch></g></g><g data-cell-id="pubsub"><g><path d="M 500 70 L 810 70 L 810 210 L 500 210 Z" fill="#e9f3e6" stroke="#248814" stroke-miterlimit="10" pointer-events="none"/></g><g><g transform="translate(-0.5 -0.5)"><switch><foreignObject pointer-events="none" width="100%" height="100%" requiredFeatures="http://www.w3.org/TR/SVG11/feature#Extensibility" style="overflow: visible; text-align: left;"><div xmlns="http://www.w3.org/1999/xhtml" style="display: flex; align-items: unsafe flex-start; justify-content: unsafe flex-start; width: 278px; height: 1px; padding-top: 77px; margin-left: 532px;"><div data-drawio-colors="color: #AAB7B8; " style="box-sizing: border-box; font-size: 0px; text-align: left;"><div style="display: inline-block; font-size: 11px; font-family: Helvetica; color: rgb(170, 183, 184); line-height: 1.2; pointer-events: all; font-weight: bold; white-space: normal; overflow-wrap: normal;">Public Subnet</div></div></div></foreignObject><text x="532" y="88" fill="#AAB7B8" font-family="&quot;Helvetica&quot;" font-size="11px" font-weight="bold">Public Subnet</text></switch></g></g><g data-cell-id="ec2"><g><path d="M 530 110 L 578 110 L 578 158 L 530 158 Z" fill="#ed7100" stroke="none" pointer-events="all"/><rect x="534.8" y="114.8" width="38.4" height="38.4" fill="none" stroke="none" pointer-events="all"/><path d="M 545.09 142.91 L 562.23 142.91 L 562.23 125.77 L 545.09 125.77 Z M 563.6 125.77 L 566.34 125.77 L 566.34 127.14 L 563.6 127.14 L 563.6 129.89 L 566.34 129.89 L 566.34 131.26 L 563.6 131.26 L 563.6 133.31 L 566.34 133.31 L 566.34 134.69 L 563.6 134.69 L 563.6 137.43 L 566.34 137.43 L 566.34 138.8 L 563.6 138.8 L 563.6 141.54 L 566.34 141.54 L 566.34 142.91 L 563.6 142.91 L 563.6 143.01 C 563.6 143.71 563.03 144.29 562.32 144.29 L 562.23 144.29 L 562.23 147.03 L 560.86 147.03 L 560.86 144.29 L 558.11 144.29 L 558.11 147.03 L 556.74 147.03 L 556.74 144.29 L 554.69 144.29 L 554.69 147.03 L 553.31 147.03 L 553.31 144.29 L 550.57 144.29 L 550.57 147.03 L 549.2 147.03 L 549.2 144.29 L 546.46 144.29 L 546.46 147.03 L 545.09 147.03 L 545.09 144.29 L 544.99 144.29 C 544.29 144.29 543.71 143.71 543.71 143.01 L 543.71 142.91 L 541.66 142.91 L 541.66 141.54 L 543.71 141.54 L 543.71 138.8 L 541.66 138.8 L 541.66 137.43 L 543.71 137.43 L 543.71 134.69 L 541.66 134.69 L 541.66 133.31 L 543.71 133.31 L 543.71 131.26 L 541.66 131.26 L 541.66 129.89 L 543.71 129.89 L 543.71 127.14 L 541.66 127.14 L 541.66 125.77 L 543.71 125.77 L 543.71 125.68 C 543.71 124.97 544.29 124.4 544.99 124.4 L 545.09 124.4 L 545.09 121.66 L 546.46 121.66 L 546.46 124.4 L 549.2 124.4 L 549.2 121.66 L 550.57 121.66 L 550.57 124.4 L 553.31 124.4 L 553.31 121.66 L 554.69 121.66 L 554.69 124.4 L 556.74 124.4 L 556.74 121.66 L 558.11 121.66 L 558.11 124.4 L 560.86 124.4 L 560.86 121.66 L 562.23 121.66 L 562.23 124.4 L 562.32 124.4 C 563.03 124.4 563.6 124.97 563.6 125.68 Z M 554.69 151.74 C 554.69 151.79 554.65 151.83 554.6 151.83 L 536.26 151.83 C 536.21 151.83 536.17 151.79 536.17 151.74 L 536.17 133.4 C 536.17 133.35 536.21 133.31 536.26 133.31 L 540.29 133.31 L 540.29 131.94 L 536.26 131.94 C 535.45 131.94 534.8 132.6 534.8 133.4 L 534.8 151.74 C 534.8 152.55 535.45 153.2 536.26 153.2 L 554.6 153.2 C 555.4 153.2 556.06 152.55 556.06 151.74 L 556.06 148.4 L 554.69 148.4 Z M 573.2 116.26 L 573.2 134.6 C 573.2 135.4 572.55 136.06 571.74 136.06 L 567.71 136.06 L 567.71 134.69 L 571.74 134.69 C 571.79 134.69 571.83 134.65 571.83 134.6 L 571.83 116.26 C 571.83 116.21 571.79 116.17 571.74 116.17 L 553.4 116.17 C 553.35 116.17 553.31 116.21 553.31 116.26 L 553.31 120.29 L 551.94 120.29 L 551.94 116.26 C 551.94 115.45 552.6 114.8 553.4 114.8 L 571.74 114.8 C 572.55 114.8 573.2 115.45 573.2 116.26 Z" fill="#000000" stroke="none" pointer-events="all"/></g><g><g transform="translate(-0.5 -0.5)"><switch><foreignObject pointer-events="none" width="100%" height="100%" requiredFeatures="http://www.w3.org/TR/SVG11/feature#Extensibility" style="overflow: visible; text-align: left;"><div xmlns="http://www.w3.org/1999/xhtml" style="display: flex; align-items: unsafe flex-start; justify-content: unsafe center; width: 1px; height: 1px; padding-top: 165px; margin-left: 554px;"><div data-drawio-colors="color: #232F3E; " style="box-sizing: border-box; font-size: 0px; text-align: center;"><div style="display: inline-block; font-size: 11px; font-family: Helvetica; color: rgb(35, 47, 62); line-height: 1.2; pointer-events: all; white-space: nowrap;">EC2 Instance</div></div></div></foreignObject><text x="554" y="176" fill="#232F3E" font-family="&quot;Helvetica&quot;" font-size="11px" text-anchor="middle">EC2 Inst...</text></switch></g></g></g><g data-cell-id="ssmagent"><g><rect x="620" y="100" width="140" height="35" rx="5.25" ry="5.25" fill="#e3f2fd" stroke="#1565c0" pointer-events="all"/></g><g><g transform="translate(-0.5 -0.5)"><switch><foreignObject pointer-events="none" width="100%" height="100%" requiredFeatures="http://www.w3.org/TR/SVG11/feature#Extensibility" style="overflow: visible; text-align: left;"><div xmlns="http://www.w3.org/1999/xhtml" style="display: flex; align-items: unsafe center; justify-content: unsafe center; width: 138px; height: 1px; padding-top: 118px; margin-left: 621px;"><div data-drawio-colors="color: rgb(0, 0, 0); " style="box-sizing: border-box; font-size: 0px; text-align: center;"><div style="display: inline-block; font-size: 10px; font-family: Helvetica; color: rgb(0, 0, 0); line-height: 1.2; pointer-events: all; white-space: normal; overflow-wrap: normal;"><b>SSM Agent</b></div></div></div></foreignObject><text x="690" y="121" fill="rgb(0, 0, 0)" font-family="&quot;Helvetica&quot;" font-size="10px" text-anchor="middle">SSM Agent</text></switch></g></g></g><g data-cell-id="cwagent"><g><rect x="620" y="150" width="140" height="35" rx="5.25" ry="5.25" fill="#fce4ec" stroke="#e7157b" pointer-events="all"/></g><g><g transform="translate(-0.5 -0.5)"><switch><foreignObject pointer-events="none" width="100%" height="100%" requiredFeatures="http://www.w3.org/TR/SVG11/feature#Extensibility" style="overflow: visible; text-align: left;"><div xmlns="http://www.w3.org/1999/xhtml" style="display: flex; align-items: unsafe center; justify-content: unsafe center; width: 138px; height: 1px; padding-top: 168px; margin-left: 621px;"><div data-drawio-colors="color: rgb(0, 0, 0); " style="box-sizing: border-box; font-size: 0px; text-align: center;"><div style="display: inline-block; font-size: 10px; font-family: Helvetica; color: rgb(0, 0, 0); line-height: 1.2; pointer-events: all; white-space: normal; overflow-wrap: normal;"><b>CloudWatch Agent</b></div></div></div></foreignObject><text x="690" y="171" fill="rgb(0, 0, 0)" font-family="&quot;Helvetica&quot;" font-size="10px" text-anchor="middle">CloudWatch Agent</text></switch></g></g></g></g></g><g data-cell-id="ssm"><g><path d="M 500 290 L 548 290 L 548 338 L 500 338 Z" fill="#e7157b" stroke="none" pointer-events="all"/><rect x="504.8" y="294.8" width="38.4" height="38.4" fill="none" stroke="none" pointer-events="all"/><path d="M 528.7 324.47 L 537.42 324.47 L 537.42 325.82 L 528.7 325.82 L 528.7 327.16 L 527.36 327.16 L 527.36 325.82 L 524.67 325.82 L 524.67 324.47 L 527.36 324.47 L 527.36 323.8 L 528.7 323.8 Z M 531.38 320.45 L 537.42 320.45 L 537.42 321.79 L 531.38 321.79 L 531.38 323.13 L 530.04 323.13 L 530.04 321.79 L 524.67 321.79 L 524.67 320.45 L 530.04 320.45 L 530.04 319.78 L 531.38 319.78 Z M 534.74 316.42 L 537.42 316.42 L 537.42 317.76 L 534.74 317.76 L 534.74 319.1 L 533.4 319.1 L 533.4 317.76 L 524.67 317.76 L 524.67 316.42 L 533.4 316.42 L 533.4 315.75 L 534.74 315.75 Z M 511.25 319.1 L 517.29 319.1 L 517.29 320.45 L 511.25 320.45 C 510.41 320.45 509.51 320.19 508.84 319.77 C 507.49 318.91 505.21 316.9 505.21 313.09 C 505.21 308.48 508.34 306.78 510.16 306.19 L 510.13 305.57 C 510.12 301.77 512.64 297.87 515.98 296.46 C 519.89 294.8 524.02 295.62 527.05 298.66 C 527.99 299.6 528.76 300.75 529.35 302.08 C 530.54 301.09 532.16 300.75 533.66 301.25 C 535.57 301.87 536.76 303.64 536.9 306.02 C 538.81 306.47 542.79 308.04 542.79 313.15 C 542.79 313.35 542.78 313.53 542.78 313.71 L 541.43 313.67 C 541.44 313.49 541.45 313.33 541.45 313.15 C 541.45 308.64 537.72 307.5 536.12 307.22 C 535.93 307.19 535.78 307.09 535.67 306.94 C 535.57 306.78 535.54 306.6 535.57 306.42 C 535.55 304.42 534.71 303 533.25 302.52 C 531.93 302.09 530.49 302.57 529.66 303.7 C 529.51 303.9 529.27 304 529.02 303.97 C 528.78 303.93 528.57 303.76 528.49 303.53 C 527.93 301.96 527.12 300.64 526.1 299.61 C 523.47 296.97 519.88 296.26 516.5 297.7 C 513.68 298.89 511.47 302.33 511.47 305.53 L 511.53 306.64 C 511.55 306.96 511.34 307.25 511.03 307.33 C 509.36 307.76 506.55 309.07 506.55 313.09 C 506.55 316.1 508.19 317.77 509.56 318.64 C 510.01 318.93 510.66 319.1 511.25 319.1 Z M 541.45 322.68 L 540.26 322.61 C 539.95 322.59 539.64 322.81 539.57 323.13 C 539.35 324.14 538.95 325.09 538.4 325.96 C 538.22 326.24 538.28 326.6 538.52 326.82 L 539.4 327.61 L 537.2 329.81 L 536.42 328.93 C 536.2 328.69 535.83 328.64 535.56 328.81 C 534.68 329.36 533.73 329.76 532.72 329.99 C 532.4 330.06 532.18 330.35 532.2 330.68 L 532.27 331.86 L 529.15 331.86 L 529.22 330.68 C 529.24 330.35 529.02 330.06 528.7 329.98 C 527.69 329.76 526.74 329.36 525.87 328.81 C 525.59 328.63 525.22 328.68 525.01 328.93 L 524.22 329.81 L 522.02 327.61 L 522.9 326.82 C 523.15 326.61 523.2 326.24 523.02 325.96 C 522.47 325.09 522.08 324.14 521.85 323.13 C 521.78 322.81 521.46 322.59 521.16 322.61 L 519.97 322.68 L 519.97 319.56 L 521.16 319.63 C 521.47 319.65 521.78 319.43 521.85 319.11 C 522.08 318.1 522.48 317.15 523.03 316.28 C 523.2 316 523.15 315.64 522.91 315.42 L 522.02 314.63 L 524.22 312.42 L 525.01 313.31 C 525.23 313.56 525.59 313.61 525.87 313.43 C 526.74 312.88 527.69 312.49 528.7 312.26 C 529.02 312.19 529.24 311.9 529.22 311.57 L 529.15 310.38 L 532.27 310.38 L 532.2 311.57 C 532.18 311.9 532.4 312.19 532.72 312.26 C 533.73 312.49 534.68 312.88 535.55 313.43 C 535.83 313.61 536.19 313.56 536.41 313.31 L 537.2 312.42 L 539.4 314.63 L 538.52 315.42 C 538.27 315.64 538.22 316 538.4 316.28 C 538.95 317.15 539.34 318.1 539.57 319.11 C 539.64 319.43 539.95 319.65 540.26 319.63 L 541.45 319.56 Z M 542.08 318.18 L 540.74 318.26 C 540.52 317.49 540.21 316.75 539.82 316.05 L 540.83 315.15 C 540.97 315.03 541.05 314.86 541.05 314.67 C 541.06 314.49 540.99 314.31 540.86 314.18 L 537.65 310.97 C 537.52 310.84 537.33 310.77 537.16 310.78 C 536.97 310.78 536.8 310.86 536.67 311 L 535.78 312.01 C 535.08 311.62 534.34 311.31 533.57 311.09 L 533.65 309.75 C 533.66 309.56 533.59 309.38 533.47 309.25 C 533.34 309.11 533.16 309.04 532.98 309.04 L 528.44 309.04 C 528.26 309.04 528.08 309.11 527.96 309.25 C 527.83 309.38 527.76 309.56 527.77 309.75 L 527.85 311.09 C 527.08 311.31 526.34 311.62 525.65 312.01 L 524.75 311 C 524.62 310.86 524.45 310.78 524.27 310.78 C 524.08 310.77 523.9 310.84 523.77 310.97 L 520.57 314.18 C 520.44 314.31 520.36 314.49 520.37 314.67 C 520.37 314.86 520.46 315.03 520.59 315.15 L 521.6 316.05 C 521.21 316.75 520.9 317.49 520.68 318.26 L 519.34 318.18 C 519.16 318.17 518.98 318.24 518.84 318.36 C 518.71 318.49 518.63 318.67 518.63 318.85 L 518.63 323.39 C 518.63 323.57 518.71 323.75 518.84 323.87 C 518.98 324 519.16 324.07 519.34 324.06 L 520.68 323.98 C 520.9 324.75 521.2 325.49 521.59 326.19 L 520.59 327.08 C 520.46 327.2 520.37 327.38 520.37 327.56 C 520.36 327.75 520.44 327.93 520.57 328.06 L 523.77 331.26 C 523.9 331.4 524.09 331.47 524.27 331.46 C 524.45 331.46 524.63 331.37 524.75 331.24 L 525.64 330.24 C 526.34 330.63 527.08 330.93 527.85 331.15 L 527.77 332.49 C 527.76 332.67 527.83 332.85 527.96 332.99 C 528.08 333.12 528.26 333.2 528.44 333.2 L 532.98 333.2 C 533.16 333.2 533.34 333.12 533.47 332.99 C 533.59 332.85 533.66 332.67 533.65 332.49 L 533.57 331.15 C 534.34 330.94 535.08 330.63 535.78 330.24 L 536.67 331.24 C 536.8 331.37 536.97 331.46 537.16 331.46 C 537.34 331.47 537.52 331.4 537.65 331.26 L 540.86 328.06 C 540.99 327.93 541.06 327.75 541.05 327.56 C 541.05 327.38 540.97 327.2 540.83 327.08 L 539.83 326.19 C 540.22 325.49 540.52 324.75 540.74 323.98 L 542.08 324.06 C 542.26 324.07 542.45 324 542.58 323.87 C 542.72 323.75 542.79 323.57 542.79 323.39 L 542.79 318.85 C 542.79 318.67 542.72 318.49 542.58 318.36 C 542.45 318.24 542.26 318.17 542.08 318.18 Z" fill="#000000" stroke="none" pointer-events="all"/></g><g><g transform="translate(-0.5 -0.5)"><switch><foreignObject pointer-events="none" width="100%" height="100%" requiredFeatures="http://www.w3.org/TR/SVG11/feature#Extensibility" style="overflow: visible; text-align: left;"><div xmlns="http://www.w3.org/1999/xhtml" style="display: flex; align-items: unsafe flex-start; justify-content: unsafe center; width: 1px; height: 1px; padding-top: 345px; margin-left: 524px;"><div data-drawio-colors="color: #232F3E; " style="box-sizing: border-box; font-size: 0px; text-align: center;"><div style="display: inline-block; font-size: 10px; font-family: Helvetica; color: rgb(35, 47, 62); line-height: 1.2; pointer-events: all; white-space: nowrap;">Systems Manager</div></div></div></foreignObject><text x="524" y="355" fill="#232F3E" font-family="&quot;Helvetica&quot;" font-size="10px" text-anchor="middle">Systems M...</text></switch></g></g></g><g data-cell-id="cloudwatch"><g><path d="M 700 290 L 748 290 L 748 338 L 700 338 Z" fill="#e7157b" stroke="none" pointer-events="all"/><rect x="704.8" y="294.8" width="38.4" height="38.4" fill="none" stroke="none" pointer-events="all"/><path d="M 734.12 319.02 C 734.12 316.36 731.94 314.19 729.26 314.19 C 726.58 314.19 724.4 316.36 724.4 319.02 C 724.4 321.68 726.58 323.85 729.26 323.85 C 731.94 323.85 734.12 321.68 734.12 319.02 M 735.49 319.02 C 735.49 322.43 732.7 325.21 729.26 325.21 C 725.83 325.21 723.03 322.43 723.03 319.02 C 723.03 315.61 725.83 312.83 729.26 312.83 C 732.7 312.83 735.49 315.61 735.49 319.02 M 741.24 328.35 L 736.47 324.08 C 736.08 324.61 735.64 325.11 735.14 325.55 L 739.91 329.82 C 740.31 330.18 740.94 330.15 741.31 329.74 C 741.68 329.34 741.65 328.71 741.24 328.35 M 729.26 326.43 C 733.38 326.43 736.72 323.11 736.72 319.02 C 736.72 314.93 733.38 311.61 729.26 311.61 C 725.15 311.61 721.8 314.93 721.8 319.02 C 721.8 323.11 725.15 326.43 729.26 326.43 M 742.33 330.65 C 741.86 331.17 741.22 331.43 740.57 331.43 C 740.01 331.43 739.44 331.23 738.99 330.83 L 734.03 326.39 C 732.66 327.27 731.02 327.79 729.26 327.79 C 724.39 327.79 720.43 323.86 720.43 319.02 C 720.43 314.18 724.39 310.25 729.26 310.25 C 734.13 310.25 738.09 314.18 738.09 319.02 C 738.09 320.41 737.76 321.72 737.18 322.88 L 742.16 327.34 C 743.12 328.2 743.2 329.69 742.33 330.65 M 711.12 307.18 C 711.12 307.53 711.14 307.89 711.18 308.23 C 711.21 308.42 711.15 308.61 711.02 308.76 C 710.91 308.88 710.77 308.95 710.62 308.98 C 708.94 309.41 706.17 310.72 706.17 314.64 C 706.17 317.6 707.81 319.23 709.19 320.08 C 709.66 320.38 710.22 320.54 710.81 320.54 L 719.06 320.55 L 719.06 321.91 L 710.8 321.9 C 709.95 321.89 709.15 321.66 708.47 321.24 C 707.1 320.39 704.8 318.41 704.8 314.64 C 704.8 310.09 707.93 308.41 709.77 307.81 C 709.76 307.6 709.75 307.39 709.75 307.18 C 709.75 303.46 712.29 299.61 715.66 298.21 C 719.59 296.57 723.77 297.38 726.81 300.38 C 727.76 301.31 728.54 302.44 729.13 303.74 C 729.93 303.09 730.92 302.72 731.96 302.72 C 734 302.72 736.31 304.26 736.72 307.63 C 738.63 308.07 742.68 309.61 742.68 314.69 C 742.68 316.72 742.04 318.4 740.77 319.68 L 739.8 318.72 C 740.8 317.71 741.31 316.35 741.31 314.69 C 741.31 310.24 737.56 309.14 735.95 308.87 C 735.76 308.84 735.6 308.73 735.5 308.58 C 735.39 308.44 735.35 308.25 735.39 308.08 C 735.16 305.32 733.51 304.08 731.96 304.08 C 730.98 304.08 730.06 304.56 729.44 305.38 C 729.29 305.58 729.05 305.68 728.79 305.65 C 728.55 305.61 728.34 305.44 728.25 305.2 C 727.69 303.66 726.88 302.36 725.85 301.35 C 723.21 298.75 719.6 298.05 716.18 299.47 C 713.34 300.64 711.12 304.03 711.12 307.18" fill="#000000" stroke="none" pointer-events="all"/></g><g><g transform="translate(-0.5 -0.5)"><switch><foreignObject pointer-events="none" width="100%" height="100%" requiredFeatures="http://www.w3.org/TR/SVG11/feature#Extensibility" style="overflow: visible; text-align: left;"><div xmlns="http://www.w3.org/1999/xhtml" style="display: flex; align-items: unsafe flex-start; justify-content: unsafe center; width: 1px; height: 1px; padding-top: 345px; margin-left: 724px;"><div data-drawio-colors="color: #232F3E; " style="box-sizing: border-box; font-size: 0px; text-align: center;"><div style="display: inline-block; font-size: 10px; font-family: Helvetica; color: rgb(35, 47, 62); line-height: 1.2; pointer-events: all; white-space: nowrap;">CloudWatch</div></div></div></foreignObject><text x="724" y="355" fill="#232F3E" font-family="&quot;Helvetica&quot;" font-size="10px" text-anchor="middle">CloudWatch</text></switch></g></g></g><g data-cell-id="cwdetail"><g><rect x="650" y="370" width="150" height="35" rx="5.25" ry="5.25" fill="#fce4ec" stroke="#e7157b" pointer-events="all"/></g><g><g transform="translate(-0.5 -0.5)"><switch><foreignObject pointer-events="none" width="100%" height="100%" requiredFeatures="http://www.w3.org/TR/SVG11/feature#Extensibility" style="overflow: visible; text-align: left;"><div xmlns="http://www.w3.org/1999/xhtml" style="display: flex; align-items: unsafe center; justify-content: unsafe center; width: 148px; height: 1px; padding-top: 388px; margin-left: 651px;"><div data-drawio-colors="color: rgb(0, 0, 0); " style="box-sizing: border-box; font-size: 0px; text-align: center;"><div style="display: inline-block; font-size: 9px; font-family: Helvetica; color: rgb(0, 0, 0); line-height: 1.2; pointer-events: all; white-space: normal; overflow-wrap: normal;">メトリクス (CPU/Mem/Disk)<br />ログ (/var/log/*)</div></div></div></foreignObject><text x="725" y="390" fill="rgb(0, 0, 0)" font-family="&quot;Helvetica&quot;" font-size="9px" text-anchor="middle">メトリクス (CPU/Mem/Disk)...</text></switch></g></g></g><g data-cell-id="cwalarm"><g><rect x="650" y="415" width="150" height="40" rx="6" ry="6" fill="#fce4ec" stroke="#e7157b" pointer-events="all"/></g><g><g transform="translate(-0.5 -0.5)"><switch><foreignObject pointer-events="none" width="100%" height="100%" requiredFeatures="http://www.w3.org/TR/SVG11/feature#Extensibility" style="overflow: visible; text-align: left;"><div xmlns="http://www.w3.org/1999/xhtml" style="display: flex; align-items: unsafe center; justify-content: unsafe center; width: 148px; height: 1px; padding-top: 435px; margin-left: 651px;"><div data-drawio-colors="color: rgb(0, 0, 0); " style="box-sizing: border-box; font-size: 0px; text-align: center;"><div style="display: inline-block; font-size: 9px; font-family: Helvetica; color: rgb(0, 0, 0); line-height: 1.2; pointer-events: all; white-space: normal; overflow-wrap: normal;"><b>CloudWatch Alarm</b><br />CPU Utilization</div></div></div></foreignObject><text x="725" y="438" fill="rgb(0, 0, 0)" font-family="&quot;Helvetica&quot;" font-size="9px" text-anchor="middle">CloudWatch Alarm...</text></switch></g></g></g><g data-cell-id="ssmdetail"><g><rect x="450" y="380" width="140" height="35" rx="5.25" ry="5.25" fill="#e3f2fd" stroke="#1565c0" pointer-events="all"/></g><g><g transform="translate(-0.5 -0.5)"><switch><foreignObject pointer-events="none" width="100%" height="100%" requiredFeatures="http://www.w3.org/TR/SVG11/feature#Extensibility" style="overflow: visible; text-align: left;"><div xmlns="http://www.w3.org/1999/xhtml" style="display: flex; align-items: unsafe center; justify-content: unsafe center; width: 138px; height: 1px; padding-top: 398px; margin-left: 451px;"><div data-drawio-colors="color: rgb(0, 0, 0); " style="box-sizing: border-box; font-size: 0px; text-align: center;"><div style="display: inline-block; font-size: 9px; font-family: Helvetica; color: rgb(0, 0, 0); line-height: 1.2; pointer-events: all; white-space: normal; overflow-wrap: normal;">Session Manager<br />(リモート管理)</div></div></div></foreignObject><text x="520" y="400" fill="rgb(0, 0, 0)" font-family="&quot;Helvetica&quot;" font-size="9px" text-anchor="middle">Session Manager...</text></switch></g></g></g></g><g data-cell-id="e1"><g><path d="M 92.9 124 L 301.5 124 Q 311.5 124 311.5 129 L 311.5 131.5 Q 311.5 134 321.5 134 L 521.76 134" fill="none" stroke="#ed7100" stroke-width="2" stroke-miterlimit="10" pointer-events="stroke"/><path d="M 527.76 134 L 519.76 138 L 521.76 134 L 519.76 130 Z" fill="#ed7100" stroke="#ed7100" stroke-width="2" stroke-miterlimit="10" pointer-events="all"/></g><g><g transform="translate(-0.5 -0.5)"><switch><foreignObject pointer-events="none" width="100%" height="100%" requiredFeatures="http://www.w3.org/TR/SVG11/feature#Extensibility" style="overflow: visible; text-align: left;"><div xmlns="http://www.w3.org/1999/xhtml" style="display: flex; align-items: unsafe center; justify-content: unsafe center; width: 1px; height: 1px; padding-top: 129px; margin-left: 312px;"><div data-drawio-colors="color: #232F3E; background-color: rgb(255, 255, 255); " style="box-sizing: border-box; font-size: 0px; text-align: center;"><div style="display: inline-block; font-size: 10px; font-family: Helvetica; color: rgb(35, 47, 62); line-height: 1.2; pointer-events: all; background-color: rgb(255, 255, 255); white-space: nowrap;">Ansible (SSH)</div></div></div></foreignObject><text x="312" y="132" fill="#232F3E" font-family="&quot;Helvetica&quot;" font-size="10px" text-anchor="middle">Ansible (SSH)</text></switch></g></g></g><g data-cell-id="e2"><g><path d="M 308 79.33 L 523.78 127.29" fill="none" stroke="#dd344c" stroke-miterlimit="10" stroke-dasharray="3 3" pointer-events="stroke"/><path d="M 528.91 128.42 L 521.32 130.32 L 523.78 127.29 L 522.83 123.49 Z" fill="#dd344c" stroke="#dd344c" stroke-miterlimit="10" pointer-events="all"/></g></g><g data-cell-id="e3"><g><path d="M 675.22 135 L 548.38 285.14" fill="none" stroke="#1565c0" stroke-miterlimit="10" stroke-dasharray="3 3" pointer-events="stroke"/><path d="M 545 289.15 L 546.84 281.54 L 548.38 285.14 L 552.19 286.06 Z" fill="#1565c0" stroke="#1565c0" stroke-miterlimit="10" pointer-events="all"/></g></g><g data-cell-id="e4"><g><path d="M 694.06 185 L 716.99 283.8" fill="none" stroke="#e7157b" stroke-miterlimit="10" stroke-dasharray="3 3" pointer-events="stroke"/><path d="M 718.18 288.91 L 713.19 282.88 L 716.99 283.8 L 720 281.3 Z" fill="#e7157b" stroke="#e7157b" stroke-miterlimit="10" pointer-events="all"/></g></g></g></g></g><switch><g requiredFeatures="http://www.w3.org/TR/SVG11/feature#Extensibility"/><a transform="translate(0,-5)" xlink:href="https://www.drawio.com/doc/faq/svg-export-text-problems" target="_blank"><text text-anchor="middle" font-size="10px" x="50%" y="100%">Text is not SVG - cannot display</text></a></switch></svg>